<svg width="46" height="46" fill="#B4A5A5" viewBox="0 0 24 24" xmlns="http://www.w3.org/2000/svg">
  <path d="M2.25 4.5v15h19.5v-15H2.25ZM3.75 6h16.5v12h-2.555c-.058-.102-.032-.243-.117-.328-.284-.284-.685-.422-1.078-.422s-.794.138-1.078.422c-.085.085-.059.226-.117.328h-6.61c-.058-.102-.032-.243-.117-.328-.284-.284-.685-.422-1.078-.422s-.794.138-1.078.422c-.085.085-.059.226-.117.328H3.75V6ZM9 7.5c-1.65 0-3 1.35-3 3 0 .835.357 1.588.914 2.133A3.781 3.781 0 0 0 5.25 15.75h1.5a2.25 2.25 0 0 1 4.5 0h1.5a3.78 3.78 0 0 0-1.664-3.117A2.984 2.984 0 0 0 12 10.5c0-1.65-1.35-3-3-3ZM9 9c.838 0 1.5.662 1.5 1.5S9.838 12 9 12s-1.5-.662-1.5-1.5S8.162 9 9 9Zm5.25.75v1.5h4.5v-1.5h-4.5Zm0 3v1.5h4.5v-1.5h-4.5Z"></path>
</svg>