<svg width="46" height="46" fill="#B4A5A5" viewBox="0 0 24 24" xmlns="http://www.w3.org/2000/svg">
  <path d="M5.625 3.75C4.6 3.75 3.75 4.6 3.75 5.625v12.75c0 1.025.85 1.875 1.875 1.875h12.75c1.025 0 1.875-.85 1.875-1.875V5.625c0-1.025-.85-1.875-1.875-1.875H5.625Zm0 1.5h12.75c.214 0 .375.161.375.375v12.75a.367.367 0 0 1-.375.375H5.625a.367.367 0 0 1-.375-.375V5.625c0-.214.161-.375.375-.375Zm2.203 1.29a1.29 1.29 0 1 0 0 2.577 1.29 1.29 0 0 0 0-2.578Zm6.774 3.42c-1.076 0-1.79.59-2.086 1.15h-.047v-.985h-2.11v7.125h2.204v-3.516c0-.928.184-1.828 1.335-1.828 1.134 0 1.149 1.05 1.149 1.875v3.469h2.203v-3.914c0-1.916-.407-3.375-2.648-3.375Zm-7.852.165v7.125h2.227v-7.125H6.75Z"></path>
</svg>